<?xml version="1.0" standalone="no"?>
<!DOCTYPE svg PUBLIC "-//W3C//DTD SVG 20010904//EN"
 "http://www.w3.org/TR/2001/REC-SVG-20010904/DTD/svg10.dtd">
<svg version="1.0" xmlns="http://www.w3.org/2000/svg"
 width="260.000000pt" height="260.000000pt" viewBox="0 0 260.000000 260.000000"
 preserveAspectRatio="xMidYMid meet">
<metadata>
Created by potrace 1.11, written by Peter Selinger 2001-2013
</metadata>
<g transform="translate(0.000000,260.000000) scale(0.100000,-0.100000)"
fill="#000000" stroke="none">
<path d="M1828 2583 c-432 -107 -618 -622 -355 -980 127 -171 306 -256 527
-248 114 3 159 15 264 66 132 64 256 210 306 359 29 85 34 260 10 352 -29 110
-78 196 -160 279 -128 129 -250 181 -432 184 -60 1 -131 -5 -160 -12z"/>
<path d="M1051 1598 c-90 -100 -175 -196 -190 -213 -98 -111 -358 -402 -366
-411 -5 -6 -39 -44 -75 -84 -36 -40 -70 -78 -75 -84 -6 -6 -42 -47 -80 -90
-39 -44 -77 -87 -85 -96 -56 -60 -148 -167 -162 -189 -19 -28 -23 -86 -9 -123
5 -13 27 -44 49 -68 l40 -45 -30 -34 c-32 -36 -32 -68 -2 -102 31 -34 91 -25
117 18 11 19 18 17 51 -15 52 -48 80 -62 124 -62 61 0 74 8 208 129 28 25 81
73 119 106 37 33 73 65 79 71 6 6 54 48 106 93 52 46 118 104 145 130 28 25
88 80 135 121 47 41 87 77 90 80 3 3 43 39 90 80 47 41 87 77 90 80 3 3 46 41
95 85 152 135 167 149 219 197 37 35 46 48 33 48 -33 0 -150 52 -219 96 -151
97 -263 246 -322 427 l-12 39 -163 -184z m101 -457 c30 -34 36 -77 16 -114
-22 -43 -305 -317 -341 -332 -32 -13 -42 -13 -70 -2 -58 25 -84 81 -62 133 11
26 263 288 323 334 36 29 99 20 134 -19z"/>
</g>
</svg>
